# xmcd CD database file
#
# Track frame offsets:
#	150
#	21407
#	36950
#	58200
#	85057
#
# Disc length: 4440 seconds
#
# Revision: 2
# Processed by: cddbd v1.5PL3 Copyright (c) Steve Scherf et al.
# Submitted via: CDex 1.40Release
#
DISCID=3d115605
DTITLE=shela - クローバー
DYEAR=2003
DGENRE=Pop
TTITLE0=I believe in love
TTITLE1=Smile
TTITLE2=Ibelieve in love-instrumental-
TTITLE3=Smile-instrumental-
TTITLE4=CCCD Data
EXTD=YEAR: 2003 ID3G: 13
EXTT0=
EXTT1=
EXTT2=
EXTT3=
EXTT4=
PLAYORDER=
